<svg width="30" height="37" viewBox="0 0 30 37" fill="none" xmlns="http://www.w3.org/2000/svg">
<path d="M15 5.50684C17.4419 5.50684 19.3605 7.39986 19.3605 9.80916C19.3605 12.2185 17.4419 14.1115 15 14.1115C12.5581 14.1115 10.6395 12.2185 10.6395 9.80916C10.6395 7.39986 12.5581 5.50684 15 5.50684ZM15 7.22777C13.6046 7.22777 12.3837 8.43242 12.3837 9.80916C12.3837 11.1859 13.6046 12.3906 15 12.3906C16.3953 12.3906 17.6163 11.1859 17.6163 9.80916C17.6163 8.43242 16.3953 7.22777 15 7.22777Z" fill="black"/>
<path d="M23.7209 22.8882C23.7209 24.437 21.9767 24.437 21.9767 23.0603C21.8023 19.2742 18.6628 16.5207 15 16.5207C11.1628 16.5207 8.19766 19.2742 8.02324 23.0603C8.02324 24.437 6.27905 24.2649 6.27905 22.8882C6.62789 18.2417 10.4651 14.7998 15 14.7998C19.7093 14.7998 23.5465 18.2417 23.7209 22.8882Z" fill="black"/>
<line x1="23.5" y1="6.5" x2="23.5" y2="10.5" stroke="black" stroke-linecap="round"/>
<line x1="21.5" y1="8.5" x2="25.5" y2="8.5" stroke="black" stroke-linecap="round" stroke-linejoin="round"/>
</svg>
