<svg width="14" height="17" viewBox="0 0 14 17" fill="none" xmlns="http://www.w3.org/2000/svg">
<g clip-path="url(#clip0)">
<mask id="path-1-inside-1" fill="white">
<path d="M11.9412 0.399414H2.05886C1.83157 0.399414 1.64709 0.578214 1.64709 0.799414V12.7994C1.64709 13.1546 2.09015 13.3342 2.34998 13.0822L7.00004 8.56501L11.6501 13.0822C11.9083 13.333 12.353 13.157 12.353 12.7994V0.799414C12.353 0.578614 12.1685 0.399414 11.9412 0.399414ZM11.5294 11.8338L7.29115 7.71661C7.13015 7.56021 6.86992 7.56021 6.70892 7.71661L2.47062 11.8338V1.19941H11.5294V11.8338Z"/>
</mask>
<path d="M2.34998 13.0822L3.04619 13.8L3.04676 13.7995L2.34998 13.0822ZM7.00004 8.56501L7.69682 7.84773L7.00004 7.17086L6.30325 7.84773L7.00004 8.56501ZM11.6501 13.0822L10.9533 13.7995L11.6501 13.0822ZM11.5294 11.8338L10.8327 12.5511L12.5294 14.1994V11.8338H11.5294ZM2.47062 11.8338H1.47062V14.1994L3.16741 12.5511L2.47062 11.8338ZM2.47062 1.19941V0.199414H1.47062V1.19941H2.47062ZM11.5294 1.19941H12.5294V0.199414H11.5294V1.19941ZM11.9412 -0.600586H2.05886V1.39941H11.9412V-0.600586ZM2.05886 -0.600586C1.30746 -0.600586 0.647095 -0.00183928 0.647095 0.799414H2.64709C2.64709 1.15827 2.35567 1.39941 2.05886 1.39941V-0.600586ZM0.647095 0.799414V12.7994H2.64709V0.799414H0.647095ZM0.647095 12.7994C0.647095 14.0955 2.19356 14.627 3.04619 13.8L1.65376 12.3644C1.83873 12.185 2.09339 12.1678 2.2753 12.2412C2.45826 12.315 2.64709 12.5159 2.64709 12.7994H0.647095ZM3.04676 13.7995L7.69682 9.28229L6.30325 7.84773L1.65319 12.3649L3.04676 13.7995ZM6.30325 9.28229L10.9533 13.7995L12.3469 12.3649L7.69682 7.84773L6.30325 9.28229ZM10.9533 13.7995C11.7971 14.6192 13.353 14.1078 13.353 12.7994H11.353C11.353 12.5165 11.5423 12.3143 11.7271 12.2404C11.9082 12.168 12.1618 12.1851 12.3469 12.3649L10.9533 13.7995ZM13.353 12.7994V0.799414H11.353V12.7994H13.353ZM13.353 0.799414C13.353 -0.000797838 12.6933 -0.600586 11.9412 -0.600586V1.39941C11.6437 1.39941 11.353 1.15803 11.353 0.799414H13.353ZM12.2262 11.1165L7.98794 6.99933L6.59437 8.43389L10.8327 12.5511L12.2262 11.1165ZM7.98794 6.99933C7.43889 6.46597 6.56118 6.46597 6.01213 6.99933L7.4057 8.43389C7.17866 8.65445 6.82142 8.65445 6.59437 8.43389L7.98794 6.99933ZM6.01213 6.99933L1.77384 11.1165L3.16741 12.5511L7.4057 8.43389L6.01213 6.99933ZM3.47062 11.8338V1.19941H1.47062V11.8338H3.47062ZM2.47062 2.19941H11.5294V0.199414H2.47062V2.19941ZM10.5294 1.19941V11.8338H12.5294V1.19941H10.5294Z" fill="black" mask="url(#path-1-inside-1)"/>
</g>
<defs>
<clipPath id="clip0">
<rect width="14" height="17" fill="white"/>
</clipPath>
</defs>
</svg>
