<svg width="119" height="93" viewBox="0 0 119 93" fill="none" xmlns="http://www.w3.org/2000/svg">
<path d="M65.9846 11.0503C55.7927 18.814 59.6214 29.0711 60.7305 32.5401C73.5621 17.1062 92.4927 10.9908 92.4927 10.9908C92.4927 10.9908 42.1952 49.8431 32.2665 67.9808C31.6182 69.165 54.3895 50.601 55.0096 48.6731C59.1957 45.1072 66.4426 36.3335 66.4426 36.3335C71.0146 39.3001 84.3056 38.3295 90.5241 32.7751C98.7337 25.3376 101.776 16.9926 108.921 3.91482C109.701 2.43393 79.8916 0.511024 65.9846 11.0503Z" fill="black"/>
<path d="M52.5818 44.994L69.0367 34.3667L70.6476 33.0839L43.4868 67.1414L22.8236 92.1644L20.4894 92.1203C19.3223 90.9974 19.3223 90.9974 0.648769 63.4225C1.76556 60.414 2.41702 58.9456 2.60315 58.5875L21.422 74.0914L37.0019 59.5427L47.3885 49.8436L52.5818 44.994Z" fill="black"/>
</svg>
