<svg width="198" height="46" viewBox="0 0 198 46" fill="none" xmlns="http://www.w3.org/2000/svg">
<path d="M0.216328 23.88C0.216328 36.48 8.97633 45.3 21.3963 45.3C31.4163 45.3 38.9763 39.72 41.3763 30.6H30.0963C28.3563 34.2 25.1763 36 21.2763 36C14.9763 36 10.6563 31.32 10.6563 23.88C10.6563 16.44 14.9763 11.76 21.2763 11.76C25.1763 11.76 28.3563 13.56 30.0963 17.16H41.3763C38.9763 8.04 31.4163 2.4 21.3963 2.4C8.97633 2.4 0.216328 11.28 0.216328 23.88ZM47.6595 45H57.9195V0.599999H47.6595V45ZM80.1148 19.26C83.5348 19.26 86.4148 21.36 86.4148 25.02H73.5748C74.1748 21.3 76.7548 19.26 80.1148 19.26ZM96.1348 33.9H85.2148C84.3748 35.7 82.7548 37.14 79.8748 37.14C76.5748 37.14 73.8748 35.1 73.5148 30.72H96.7348C96.8548 29.7 96.9148 28.68 96.9148 27.72C96.9148 17.52 90.0148 11.04 80.2348 11.04C70.2748 11.04 63.3148 17.64 63.3148 28.26C63.3148 38.88 70.3948 45.48 80.2348 45.48C88.5748 45.48 94.5148 40.44 96.1348 33.9ZM100.287 28.2C100.287 38.76 106.827 45.48 114.987 45.48C119.967 45.48 123.507 43.2 125.367 40.26V45H135.627V11.52H125.367V16.26C123.567 13.32 120.027 11.04 115.047 11.04C106.827 11.04 100.287 17.64 100.287 28.2ZM125.367 28.26C125.367 33.6 121.947 36.54 118.047 36.54C114.207 36.54 110.727 33.54 110.727 28.2C110.727 22.86 114.207 19.98 118.047 19.98C121.947 19.98 125.367 22.92 125.367 28.26ZM166.15 45H176.35V25.44C176.35 16.44 171.19 11.16 163.45 11.16C158.95 11.16 155.35 13.14 153.31 15.96V11.52H143.05V45H153.31V26.82C153.31 22.26 155.83 19.74 159.73 19.74C163.63 19.74 166.15 22.26 166.15 26.82V45ZM187.08 30.12H195.78L196.98 1.38H185.88L187.08 30.12ZM197.64 39.96C197.64 36.78 195.18 34.32 191.58 34.32C187.92 34.32 185.46 36.78 185.46 39.96C185.46 43.02 187.92 45.48 191.58 45.48C195.18 45.48 197.64 43.02 197.64 39.96Z" fill="#1E1E1E"/>
</svg>
