<svg width="365" height="33" viewBox="0 0 365 33" fill="none" xmlns="http://www.w3.org/2000/svg">
<path d="M0.72 18.04C0.72 26.4 6.84 32.24 14.64 32.24C20.68 32.24 25.48 29.24 27.56 23.88H23.2C21.68 27.2 18.72 29.08 14.64 29.08C8.8 29.08 4.44 24.84 4.44 18.04C4.44 11.2 8.8 6.96 14.64 6.96C18.72 6.96 21.68 8.84 23.2 12.2H27.56C25.48 6.8 20.68 3.76 14.64 3.76C6.84 3.76 0.72 9.68 0.72 18.04ZM36.9784 4.12V32H50.3784V29.04H40.6184V4.12H36.9784ZM76.5241 4.08V26.24L61.8841 4.08H58.2441V32H61.8841V9.8L76.5241 32H80.1641V4.08H76.5241ZM98.1291 7.56V15.32H90.5691V20.2H98.1291V27.96H103.409V20.2H110.969V15.32H103.409V7.56H98.1291ZM139.962 32H145.882L135.842 4.04H129.322L119.282 32H125.162L127.002 26.68H138.122L139.962 32ZM136.602 22.2H128.522L132.562 10.52L136.602 22.2ZM153.635 4.08V32H168.435V27.56H159.235V4.08H153.635ZM174.514 8.6H181.954V32H187.554V8.6H194.994V4.08H174.514V8.6ZM224.092 26.28L216.412 4.08H210.412L220.652 32H227.452L237.692 4.08H231.732L224.092 26.28ZM250.569 14.08C253.449 14.08 255.769 15.92 255.849 18.84H245.329C245.769 15.8 247.889 14.08 250.569 14.08ZM261.089 25.04H255.049C254.329 26.52 253.009 27.72 250.609 27.72C247.809 27.72 245.569 25.88 245.289 22.6H261.489C261.609 21.88 261.649 21.16 261.649 20.44C261.649 13.84 257.129 9.48 250.729 9.48C244.169 9.48 239.609 13.92 239.609 20.92C239.609 27.88 244.289 32.36 250.729 32.36C256.209 32.36 259.889 29.12 261.089 25.04ZM271.337 20.96C271.337 16.68 273.337 15.4 276.657 15.4H278.137V9.52C275.057 9.52 272.737 11 271.337 13.28V9.84H265.737V32H271.337V20.96ZM281.908 32H287.508V9.84H281.908V32ZM284.748 7.2C286.708 7.2 288.188 5.76 288.188 3.92C288.188 2.08 286.708 0.639998 284.748 0.639998C282.748 0.639998 281.308 2.08 281.308 3.92C281.308 5.76 282.748 7.2 284.748 7.2ZM293.641 32H299.321V14.44H303.201V9.84H299.321V8.92C299.321 6.44 300.241 5.56 302.961 5.64V0.92C296.721 0.759999 293.641 3.28 293.641 8.72V9.84H291.121V14.44H293.641V32ZM306.83 32H312.43V9.84H306.83V32ZM309.67 7.2C311.63 7.2 313.11 5.76 313.11 3.92C313.11 2.08 311.63 0.639998 309.67 0.639998C307.67 0.639998 306.23 2.08 306.23 3.92C306.23 5.76 307.67 7.2 309.67 7.2ZM327.483 14.08C330.363 14.08 332.683 15.92 332.763 18.84H322.243C322.683 15.8 324.803 14.08 327.483 14.08ZM338.003 25.04H331.963C331.243 26.52 329.923 27.72 327.523 27.72C324.723 27.72 322.483 25.88 322.203 22.6H338.403C338.523 21.88 338.563 21.16 338.563 20.44C338.563 13.84 334.043 9.48 327.643 9.48C321.083 9.48 316.523 13.92 316.523 20.92C316.523 27.88 321.203 32.36 327.643 32.36C333.123 32.36 336.803 29.12 338.003 25.04ZM341.211 20.84C341.211 27.76 345.691 32.36 351.331 32.36C354.811 32.36 357.291 30.76 358.611 28.72V32H364.291V2.4H358.611V12.92C357.091 10.84 354.291 9.48 351.371 9.48C345.691 9.48 341.211 13.92 341.211 20.84ZM358.651 20.92C358.651 25.12 355.851 27.44 352.771 27.44C349.771 27.44 346.931 25.04 346.931 20.84C346.931 16.64 349.771 14.4 352.771 14.4C355.851 14.4 358.651 16.72 358.651 20.92Z" fill="#1E1E1E"/>
</svg>
