<svg width="79" height="79" viewBox="0 0 79 79" fill="none" xmlns="http://www.w3.org/2000/svg">
<path d="M42.3826 24.9823C41.8993 23.7804 40.6913 23.0437 39.2013 23.0049C38.4765 22.9661 37.7517 23.16 37.1477 23.4702C36.4631 23.8191 35.9396 24.3232 35.6577 24.9823C35.1745 25.9904 34.5302 26.9597 33.4832 28.2391C33.1611 28.6268 33 29.1309 33 29.6737C33 30.1389 33.1611 30.643 33.443 31.0307C33.9664 31.8061 34.8121 32.1163 35.6174 31.9225C36.302 31.7286 37.4295 31.3021 37.953 31.0307C38.6376 30.6818 39.3624 30.6818 40.047 31.0307C40.6107 31.3021 41.698 31.7286 42.3826 31.9225C42.5436 31.9612 42.7047 32 42.8658 32C43.5101 32 44.1141 31.6511 44.557 31.0695C44.8389 30.6818 45 30.1777 45 29.7125C45 29.1697 44.8389 28.7044 44.5168 28.2779C43.6711 27.1535 42.8255 26.1067 42.3826 24.9823Z" fill="black"/>
<path d="M34.6378 22.5451C34.9473 22.7519 35.2568 22.9173 35.5663 22.9586C35.699 23 35.8316 23 36.0085 23C36.2296 23 36.4065 22.9586 36.6275 22.9173C36.9371 22.7932 37.2466 22.5865 37.4677 22.3383C37.6446 22.0902 37.8214 21.8007 37.9099 21.4286C38.0867 20.7669 37.9983 19.9812 37.6888 19.2368C37.3792 18.4925 36.8929 17.8722 36.318 17.4586C36.0085 17.2519 35.699 17.0864 35.3895 17.0451C35.0357 16.9624 34.682 17.0037 34.3725 17.0864C34.0629 17.2105 33.7534 17.4173 33.5323 17.6654C33.3555 17.9135 33.1786 18.203 33.0901 18.5752C32.9133 19.2368 33.0017 20.0225 33.3112 20.7669C33.5765 21.5113 34.0629 22.1316 34.6378 22.5451Z" fill="black"/>
<path d="M40.3777 22.3397C40.556 22.6286 40.7699 22.7937 41.0552 22.9175C41.1978 23 41.3761 23 41.5543 23C41.6613 23 41.7682 23 41.9109 22.9587C42.1604 22.8762 42.41 22.7524 42.6596 22.5461C43.1231 22.1334 43.5153 21.5144 43.7649 20.7716C44.0145 20.0288 44.0501 19.2447 43.9431 18.5844C43.8718 18.2543 43.7649 17.9241 43.5866 17.6765C43.4083 17.3877 43.1944 17.2226 42.9092 17.0988C42.6596 16.975 42.3744 16.975 42.0891 17.0575C41.8396 17.1401 41.59 17.2639 41.3404 17.4702C40.8769 17.8829 40.4847 18.5019 40.2351 19.2447C39.9855 19.9875 39.9499 20.7716 40.0569 21.4318C40.0925 21.8033 40.2351 22.0921 40.3777 22.3397Z" fill="black"/>
<path d="M33.9238 26.0496C34 25.8017 34 25.5124 34 25.2231C33.9238 24.6446 33.6952 24.0248 33.3524 23.4463C32.9714 22.8678 32.5143 22.4545 32.019 22.2066C31.7524 22.0826 31.5238 22 31.2571 22C30.9905 22 30.7238 22.0826 30.5333 22.2479C30.3429 22.4132 30.1905 22.6612 30.0762 22.9504C30 23.1983 30 23.4876 30 23.7769C30.0762 24.3554 30.3048 24.9752 30.6476 25.5537C31.0286 26.1322 31.4857 26.5455 31.981 26.7934C32.2476 26.9174 32.4762 27 32.7429 27H32.781C33.0476 27 33.2762 26.9174 33.4667 26.7521C33.6952 26.5868 33.8476 26.3388 33.9238 26.0496Z" fill="black"/>
<path d="M47.9095 21.9504C47.8339 21.6612 47.6827 21.4132 47.4558 21.2479C47.2667 21.0826 47.002 21 46.7373 21C46.5105 21 46.2458 21.0826 45.9811 21.2066C45.4895 21.4545 45.0358 21.9091 44.6576 22.4463C44.2795 23.0248 44.0526 23.6446 44.0148 24.2231C43.977 24.5124 44.0148 24.8017 44.0905 25.0496C44.1661 25.3388 44.3173 25.5868 44.5442 25.7521C44.7333 25.9174 44.998 26 45.2248 26H45.2627C45.4895 26 45.7542 25.9174 46.0189 25.7934C46.5105 25.5455 46.9642 25.0909 47.3423 24.5537C47.7205 23.9752 47.9474 23.3554 47.9852 22.7769C48.023 22.4876 47.9852 22.1983 47.9095 21.9504Z" fill="black"/>
<circle cx="39.5" cy="39.5" r="38.5" stroke="black" stroke-width="2"/>
<path d="M16.6824 43.15C16.6824 45.449 18.3654 47.066 20.5764 47.066C22.2814 47.066 23.6674 46.164 24.1844 44.58H22.4134C22.0504 45.328 21.3904 45.691 20.5654 45.691C19.2234 45.691 18.2664 44.701 18.2664 43.15C18.2664 41.588 19.2234 40.609 20.5654 40.609C21.3904 40.609 22.0504 40.972 22.4134 41.709H24.1844C23.6674 40.136 22.2814 39.223 20.5764 39.223C18.3654 39.223 16.6824 40.851 16.6824 43.15ZM29.5697 41.709C29.5697 42.402 29.1847 42.853 28.3267 42.853H27.0397V40.598H28.3267C29.1847 40.598 29.5697 41.027 29.5697 41.709ZM25.4997 39.322V47H27.0397V44.008H27.7657L29.4597 47H31.2417L29.4047 43.887C30.6367 43.557 31.1537 42.611 31.1537 41.676C31.1537 40.389 30.2297 39.322 28.3817 39.322H25.4997ZM32.5246 44.063C32.5246 46.087 33.9106 47.077 35.5936 47.077C37.2766 47.077 38.7286 46.087 38.7286 44.063V39.322H37.1776V44.074C37.1776 45.13 36.6056 45.68 35.6156 45.68C34.6366 45.68 34.0646 45.13 34.0646 44.074V39.322H32.5246V44.063ZM44.6715 39.311H40.2165V47H44.6715V45.746H41.7565V43.711H44.3415V42.49H41.7565V40.565H44.6715V39.311ZM46.071 39.322V47H50.141V45.779H47.611V39.322H46.071ZM50.7128 40.565H52.7588V47H54.2988V40.565H56.3448V39.322H50.7128V40.565ZM59.4375 44.327V47H60.9775V44.327L63.5735 39.322H61.8575L60.2185 42.831L58.5685 39.322H56.8305L59.4375 44.327ZM28.4646 64H30.0046V60.755H32.4576V59.534H30.0046V57.565H33.2056V56.322H28.4646V64ZM38.3676 58.709C38.3676 59.402 37.9826 59.853 37.1246 59.853H35.8376V57.598H37.1246C37.9826 57.598 38.3676 58.027 38.3676 58.709ZM34.2976 56.322V64H35.8376V61.008H36.5636L38.2576 64H40.0396L38.2026 60.887C39.4346 60.557 39.9516 59.611 39.9516 58.676C39.9516 57.389 39.0276 56.322 37.1796 56.322H34.2976ZM45.7994 56.311H41.3444V64H45.7994V62.746H42.8844V60.711H45.4694V59.49H42.8844V57.565H45.7994V56.311ZM51.6539 56.311H47.1989V64H51.6539V62.746H48.7389V60.711H51.3239V59.49H48.7389V57.565H51.6539V56.311Z" fill="black"/>
</svg>
