<svg width="21" height="18" viewBox="0 0 21 18" fill="none" xmlns="http://www.w3.org/2000/svg">
<rect width="21" height="18" fill="white"/>
<path d="M19.1543 2.14453H1.8457C0.829254 2.14453 0 2.85455 0 3.72656V14.2734C0 15.1425 0.825563 15.8555 1.8457 15.8555H19.1543C20.1682 15.8555 21 15.1478 21 14.2734V3.72656C21 2.8575 20.1744 2.14453 19.1543 2.14453ZM18.8994 3.19922L10.5391 10.3652L2.10652 3.19922H18.8994ZM1.23047 14.055V3.93993L7.15637 8.97571L1.23047 14.055ZM2.10053 14.8008L8.03016 9.71824L10.1079 11.4839C10.3484 11.6883 10.7365 11.6876 10.9761 11.4822L13.002 9.74577L18.8995 14.8008H2.10053ZM19.7695 14.055L13.872 9L19.7695 3.94495V14.055Z" fill="black"/>
</svg>
