<svg width="1043" height="47" viewBox="0 0 1043 47" fill="none" xmlns="http://www.w3.org/2000/svg">
<path d="M0.377344 36H4.92734V20.3H17.2273V16.6H4.92734V4.85H20.0773V1.15H0.377344V36ZM63.8727 18.55C63.8727 8.1 56.2227 0.749998 46.3727 0.749998C36.5727 0.749998 28.8727 8.1 28.8727 18.55C28.8727 29 36.5727 36.35 46.3727 36.35C56.2227 36.35 63.8727 29 63.8727 18.55ZM33.5227 18.55C33.5227 10 39.0227 4.7 46.3727 4.7C53.7227 4.7 59.2227 10 59.2227 18.55C59.2227 27.05 53.7227 32.4 46.3727 32.4C39.0227 32.4 33.5227 27.05 33.5227 18.55ZM74.8793 1.15V36H91.6293V32.3H79.4293V1.15H74.8793ZM101.461 1.15V36H118.211V32.3H106.011V1.15H101.461ZM161.343 18.55C161.343 8.1 153.693 0.749998 143.843 0.749998C134.043 0.749998 126.343 8.1 126.343 18.55C126.343 29 134.043 36.35 143.843 36.35C153.693 36.35 161.343 29 161.343 18.55ZM130.993 18.55C130.993 10 136.493 4.7 143.843 4.7C151.193 4.7 156.693 10 156.693 18.55C156.693 27.05 151.193 32.4 143.843 32.4C136.493 32.4 130.993 27.05 130.993 18.55ZM179.4 36.05L184.45 36L192.85 7.95L200.95 36H206.05L216.15 1.15H211.25L203.6 30.6L195.6 1.15H190.5L182.1 30.7L174.5 1.15H169.65L179.4 36.05ZM244.359 23.15C244.359 32.2 250.259 36.35 257.459 36.35C264.659 36.35 270.609 32.2 270.609 23.15V1.15H266.059V23.2C266.059 29.6 262.659 32.35 257.509 32.35C252.359 32.35 248.909 29.6 248.909 23.2V1.15H244.359V23.15ZM305.85 26.5C305.85 13.6 287.05 19.2 287.05 10.2C287.05 6.45 290 4.5 293.75 4.6C298 4.65 300.2 7.3 300.5 9.65H305.5C304.95 4.35 300.6 0.699998 293.95 0.699998C287.05 0.699998 282.4 4.6 282.4 10.35C282.4 23.3 301.25 17.3 301.25 26.7C301.25 30 298.65 32.5 294.25 32.5C289.4 32.5 287.35 29.6 287.05 26.7H282.2C282.3 32.45 287.25 36.35 294.25 36.35C301.8 36.35 305.85 31.45 305.85 26.5ZM369.175 18.55C369.175 8.1 361.525 0.749998 351.675 0.749998C341.875 0.749998 334.175 8.1 334.175 18.55C334.175 29 341.875 36.35 351.675 36.35C361.525 36.35 369.175 29 369.175 18.55ZM338.825 18.55C338.825 10 344.325 4.7 351.675 4.7C359.025 4.7 364.525 10 364.525 18.55C364.525 27.05 359.025 32.4 351.675 32.4C344.325 32.4 338.825 27.05 338.825 18.55ZM403.032 1.1V28.8L384.732 1.1H380.182V36H384.732V8.25L403.032 36H407.582V1.1H403.032ZM438.668 36H443.218V1.15H438.668V36ZM478.823 1.1V28.8L460.523 1.1H455.973V36H460.523V8.25L478.823 36H483.373V1.1H478.823ZM518.779 26.5C518.779 13.6 499.979 19.2 499.979 10.2C499.979 6.45 502.929 4.5 506.679 4.6C510.929 4.65 513.129 7.3 513.429 9.65H518.429C517.879 4.35 513.529 0.699998 506.879 0.699998C499.979 0.699998 495.329 4.6 495.329 10.35C495.329 23.3 514.179 17.3 514.179 26.7C514.179 30 511.579 32.5 507.179 32.5C502.329 32.5 500.279 29.6 499.979 26.7H495.129C495.229 32.45 500.179 36.35 507.179 36.35C514.729 36.35 518.779 31.45 518.779 26.5ZM528.325 4.85H537.875V36H542.425V4.85H551.925V1.15H528.325V4.85ZM585.926 36H590.726L578.176 1.35H572.926L560.326 36H565.126L567.926 28.25H583.126L585.926 36ZM581.826 24.55H569.226L575.526 6.95L581.826 24.55ZM617.017 0.749998C607.217 0.749998 599.517 8.1 599.517 18.55C599.517 29 607.217 36.3 617.017 36.3C626.467 36.3 633.317 29.35 634.117 20.7V17.2H615.367V20.9H629.267C628.567 27.8 623.867 32.2 617.017 32.2C609.667 32.2 604.167 26.9 604.167 18.55C604.167 10.15 609.667 4.85 617.017 4.85C621.917 4.85 625.717 7.2 627.617 11.25H633.067C630.467 4.55 624.367 0.749998 617.017 0.749998ZM663.783 11.4C663.783 15.3 661.533 18.1 656.383 18.1H649.683V4.9H656.383C661.583 4.9 663.783 7.45 663.783 11.4ZM645.133 1.15V36H649.683V21.75H655.183L663.483 36H668.933L660.183 21.4C666.033 20.1 668.483 15.85 668.483 11.4C668.483 5.7 664.583 1.15 656.383 1.15H645.133ZM703.953 36H708.753L696.203 1.35H690.953L678.353 36H683.153L685.953 28.25H701.153L703.953 36ZM699.853 24.55H687.253L693.553 6.95L699.853 24.55ZM719.245 36H723.795V10.15L735.345 36H738.545L750.045 10.2V36H754.595V1.4H749.745L736.945 30L724.145 1.4H719.245V36ZM810.849 3.7C814.649 3.7 817.933 4.4 820.699 5.8C823.466 7.2 825.566 9.16666 826.999 11.7C828.466 14.2 829.199 17.1167 829.199 20.45C829.199 23.1167 828.733 25.6667 827.799 28.1C826.899 30.5333 825.583 32.5167 823.849 34.05C822.149 35.5833 820.133 36.35 817.799 36.35C816.099 36.35 814.766 35.9833 813.799 35.25C812.833 34.4833 812.233 33.4167 811.999 32.05C810.966 33.3833 809.666 34.4333 808.099 35.2C806.533 35.9667 804.899 36.35 803.199 36.35C800.633 36.35 798.616 35.5833 797.149 34.05C795.716 32.4833 794.999 30.3667 794.999 27.7C794.999 25.1667 795.516 22.8 796.549 20.6C797.616 18.4 799.099 16.65 800.999 15.35C802.899 14.0167 805.033 13.35 807.399 13.35C810.299 13.35 812.333 14.3333 813.499 16.3L813.949 13.8H818.899L816.399 28.1C816.299 28.8 816.249 29.4167 816.249 29.95C816.249 30.8167 816.416 31.4667 816.749 31.9C817.116 32.3333 817.749 32.55 818.649 32.55C819.916 32.55 820.999 31.9333 821.899 30.7C822.799 29.4333 823.466 27.8833 823.899 26.05C824.366 24.2167 824.599 22.4333 824.599 20.7C824.599 16.4667 823.366 13.2333 820.899 11C818.433 8.76667 814.849 7.65 810.149 7.65C806.216 7.65 802.683 8.58333 799.549 10.45C796.449 12.3167 794.016 14.8833 792.249 18.15C790.483 21.4167 789.599 25.05 789.599 29.05C789.599 33.3167 790.866 36.5667 793.399 38.8C795.933 41.0333 799.549 42.15 804.249 42.15C807.416 42.15 810.183 41.5667 812.549 40.4L813.299 44.2C810.266 45.5 806.866 46.15 803.099 46.15C799.466 46.15 796.283 45.4667 793.549 44.1C790.816 42.7333 788.699 40.7833 787.199 38.25C785.699 35.75 784.949 32.8333 784.949 29.5C784.949 24.7333 786.049 20.3833 788.249 16.45C790.483 12.5167 793.566 9.41667 797.499 7.15C801.433 4.85 805.883 3.7 810.849 3.7ZM804.949 31.95C806.349 31.95 807.616 31.55 808.749 30.75C809.916 29.9167 810.833 28.8333 811.499 27.5C812.166 26.1333 812.499 24.6833 812.499 23.15C812.499 21.55 812.049 20.25 811.149 19.25C810.283 18.2167 809.049 17.7 807.449 17.7C806.016 17.7 804.749 18.15 803.649 19.05C802.583 19.9167 801.749 21.05 801.149 22.45C800.583 23.85 800.299 25.3167 800.299 26.85C800.299 28.4167 800.683 29.6667 801.449 30.6C802.216 31.5 803.383 31.95 804.949 31.95ZM839.569 18.55C839.569 15.15 840.352 12.1 841.919 9.4C843.519 6.7 845.669 4.6 848.369 3.1C851.102 1.56666 854.085 0.799997 857.319 0.799997C861.019 0.799997 864.302 1.71666 867.169 3.55C870.069 5.35 872.169 7.91667 873.469 11.25H866.619C865.719 9.41667 864.469 8.05 862.869 7.15C861.269 6.25 859.419 5.8 857.319 5.8C855.019 5.8 852.969 6.31667 851.169 7.35C849.369 8.38333 847.952 9.86666 846.919 11.8C845.919 13.7333 845.419 15.9833 845.419 18.55C845.419 21.1167 845.919 23.3667 846.919 25.3C847.952 27.2333 849.369 28.7333 851.169 29.8C852.969 30.8333 855.019 31.35 857.319 31.35C859.419 31.35 861.269 30.9 862.869 30C864.469 29.1 865.719 27.7333 866.619 25.9H873.469C872.169 29.2333 870.069 31.8 867.169 33.6C864.302 35.4 861.019 36.3 857.319 36.3C854.052 36.3 851.069 35.55 848.369 34.05C845.669 32.5167 843.519 30.4 841.919 27.7C840.352 25 839.569 21.95 839.569 18.55ZM890.841 31.4H902.591V36H885.141V1.25H890.841V31.4ZM940.907 36H935.207L918.057 10.05V36H912.357V1.2H918.057L935.207 27.1V1.2H940.907V36ZM974.343 28.9H959.793L957.293 36H951.343L963.793 1.2H970.393L982.843 36H976.843L974.343 28.9ZM972.743 24.25L967.093 8.1L961.393 24.25H972.743ZM998.956 31.4H1010.71V36H993.256V1.25H998.956V31.4ZM1042.92 1.25V5.9H1033.67V36H1027.97V5.9H1018.67V1.25H1042.92Z" fill="#211E1E"/>
</svg>
