<svg width="79" height="79" viewBox="0 0 79 79" fill="none" xmlns="http://www.w3.org/2000/svg">
<path d="M40.0156 11.1133C40.0156 11.1133 38.4712 12.68 40.0156 13.9702C41.56 12.68 40.0156 11.1133 40.0156 11.1133Z" fill="black"/>
<path d="M42.2178 13.584C42.2178 13.584 40.0026 13.6787 40.2236 15.6601C42.249 15.7728 42.2178 13.584 42.2178 13.584Z" fill="black"/>
<path d="M37.8732 13.584C37.8732 13.584 40.0884 13.6787 39.8674 15.6601C37.8446 15.7728 37.8732 13.584 37.8732 13.584Z" fill="black"/>
<path d="M42.4856 15.9033C42.4856 15.9033 39.9662 16.0108 40.2184 18.2636C42.5194 18.3865 42.4856 15.9033 42.4856 15.9033Z" fill="black"/>
<path d="M37.543 15.9033C37.543 15.9033 40.0624 16.0108 39.8102 18.2636C37.5118 18.3865 37.543 15.9033 37.543 15.9033Z" fill="black"/>
<path d="M42.4856 18.3613C42.4856 18.3613 39.9662 18.4688 40.2184 20.7216C42.5194 20.8445 42.4856 18.3613 42.4856 18.3613Z" fill="black"/>
<path d="M37.543 18.3613C37.543 18.3613 40.0624 18.4688 39.8102 20.7216C37.5118 20.8445 37.543 18.3613 37.543 18.3613Z" fill="black"/>
<path d="M42.6442 20.752C42.6442 20.752 39.9636 20.8646 40.2314 23.2633C42.678 23.3836 42.6442 20.752 42.6442 20.752Z" fill="black"/>
<path d="M37.387 20.752C37.387 20.752 40.0676 20.8646 39.7998 23.2633C37.3506 23.3836 37.387 20.752 37.387 20.752Z" fill="black"/>
<path d="M42.7716 23.417C42.7716 23.417 39.961 23.5348 40.2444 26.0487C42.808 26.1869 42.7716 23.417 42.7716 23.417Z" fill="black"/>
<path d="M37.2596 23.417C37.2596 23.417 40.0702 23.5348 39.7868 26.0487C37.2232 26.1869 37.2596 23.417 37.2596 23.417Z" fill="black"/>
<path d="M43.016 25.9336C43.016 25.9336 39.9168 26.0642 40.2288 28.8366C43.055 28.9877 43.016 25.9336 43.016 25.9336Z" fill="black"/>
<path d="M36.9372 25.9336C36.9372 25.9336 40.0364 26.0642 39.7244 28.8366C36.8956 28.9877 36.9372 25.9336 36.9372 25.9336Z" fill="black"/>
<path d="M40 30V30L40 34V34L40 30Z" stroke="black"/>
<circle cx="39.5" cy="39.5" r="38.5" stroke="black" stroke-width="2"/>
<path d="M29.8142 39.223C27.5922 39.223 25.8982 40.851 25.8982 43.15C25.8982 45.449 27.5922 47.066 29.8252 47.066C31.8712 47.066 33.2682 45.636 33.5762 44.074V42.732H29.4182V43.909H32.0582C31.8272 44.998 31.0682 45.68 29.8802 45.68C28.4502 45.68 27.4822 44.712 27.4822 43.15C27.4822 41.621 28.4392 40.642 29.8142 40.642C30.6282 40.642 31.2662 40.983 31.6182 41.632H33.3892C32.8942 40.092 31.5302 39.223 29.8142 39.223ZM34.7155 47H36.2555V42.006L38.3235 47H39.4895L41.5465 42.006V47H43.0865V39.322H41.3485L38.9065 45.031L36.4645 39.322H34.7155V47ZM52.1001 43.139C52.1001 40.84 50.3621 39.212 48.1731 39.212C46.0061 39.212 44.2351 40.84 44.2351 43.139C44.2351 45.449 46.0061 47.077 48.1731 47.077C50.3511 47.077 52.1001 45.449 52.1001 43.139ZM45.8191 43.139C45.8191 41.577 46.7761 40.598 48.1731 40.598C49.5591 40.598 50.5161 41.577 50.5161 43.139C50.5161 44.701 49.5591 45.702 48.1731 45.702C46.7761 45.702 45.8191 44.701 45.8191 43.139ZM27.4646 64H29.0046V60.755H31.4576V59.534H29.0046V57.565H32.2056V56.322H27.4646V64ZM37.3676 58.709C37.3676 59.402 36.9826 59.853 36.1246 59.853H34.8376V57.598H36.1246C36.9826 57.598 37.3676 58.027 37.3676 58.709ZM33.2976 56.322V64H34.8376V61.008H35.5636L37.2576 64H39.0396L37.2026 60.887C38.4346 60.557 38.9516 59.611 38.9516 58.676C38.9516 57.389 38.0276 56.322 36.1796 56.322H33.2976ZM44.7994 56.311H40.3444V64H44.7994V62.746H41.8844V60.711H44.4694V59.49H41.8844V57.565H44.7994V56.311ZM50.6539 56.311H46.1989V64H50.6539V62.746H47.7389V60.711H50.3239V59.49H47.7389V57.565H50.6539V56.311Z" fill="black"/>
</svg>
