<svg width="488" height="35" viewBox="0 0 488 35" fill="none" xmlns="http://www.w3.org/2000/svg">
<path d="M20.6046 34H26.9046V2.59H20.6046V15.505H7.14963V2.59H0.849629V34H7.14963V20.635H20.6046V34ZM57.1805 21.535C57.1805 13.66 51.5555 8.665 44.3555 8.665C37.1555 8.665 31.5305 13.66 31.5305 21.535C31.5305 29.365 36.9755 34.405 44.1755 34.405C51.4205 34.405 57.1805 29.365 57.1805 21.535ZM37.9205 21.535C37.9205 16.54 40.9355 14.155 44.2655 14.155C47.5955 14.155 50.7005 16.54 50.7005 21.535C50.7005 26.485 47.5055 28.915 44.1755 28.915C40.8005 28.915 37.9205 26.485 37.9205 21.535ZM66.3468 34H73.1868L77.7318 16.585L82.2768 34H89.0718L96.3618 9.07H90.3318L85.9218 28.015L81.2418 9.07H74.5818L69.8118 28.06L65.4018 9.07H59.0118L66.3468 34ZM113.823 18.295C113.823 27.7 120.708 34.27 129.483 34.27C136.278 34.27 141.678 30.895 144.018 24.865H139.113C137.403 28.6 134.073 30.715 129.483 30.715C122.913 30.715 118.008 25.945 118.008 18.295C118.008 10.6 122.913 5.83 129.483 5.83C134.073 5.83 137.403 7.945 139.113 11.725H144.018C141.678 5.65 136.278 2.23 129.483 2.23C120.708 2.23 113.823 8.89 113.823 18.295ZM154.614 2.635V34H169.689V30.67H158.709V2.635H154.614ZM199.103 2.59V27.52L182.633 2.59H178.538V34H182.633V9.025L199.103 34H203.198V2.59H199.103ZM223.408 6.505V15.235H214.903V20.725H223.408V29.455H229.348V20.725H237.853V15.235H229.348V6.505H223.408ZM270.471 34H277.131L265.836 2.545H258.501L247.206 34H253.821L255.891 28.015H268.401L270.471 34ZM266.691 22.975H257.601L262.146 9.835L266.691 22.975ZM285.853 2.59V34H302.503V29.005H292.153V2.59H285.853ZM309.342 7.675H317.712V34H324.012V7.675H332.382V2.59H309.342V7.675ZM361.246 34H368.086L372.631 16.585L377.176 34H383.971L391.261 9.07H385.231L380.821 28.015L376.141 9.07H369.481L364.711 28.06L360.301 9.07H353.911L361.246 34ZM418.745 21.535C418.745 13.66 413.12 8.665 405.92 8.665C398.72 8.665 393.095 13.66 393.095 21.535C393.095 29.365 398.54 34.405 405.74 34.405C412.985 34.405 418.745 29.365 418.745 21.535ZM399.485 21.535C399.485 16.54 402.5 14.155 405.83 14.155C409.16 14.155 412.265 16.54 412.265 21.535C412.265 26.485 409.07 28.915 405.74 28.915C402.365 28.915 399.485 26.485 399.485 21.535ZM429.666 21.58C429.666 16.765 431.916 15.325 435.651 15.325H437.316V8.71C433.851 8.71 431.241 10.375 429.666 12.94V9.07H423.366V34H429.666V21.58ZM441.56 34H447.86V23.38L456.32 34H464.51L453.44 21.58L464.42 9.07H456.23L447.86 19.645V0.7H441.56V34ZM487.189 26.89C487.009 17.755 473.194 20.59 473.194 16.045C473.194 14.605 474.409 13.66 476.749 13.66C479.224 13.66 480.754 14.965 480.934 16.9H486.964C486.604 11.95 482.959 8.665 476.929 8.665C470.764 8.665 467.074 11.995 467.074 16.135C467.074 25.27 481.159 22.435 481.159 26.89C481.159 28.33 479.809 29.455 477.334 29.455C474.814 29.455 473.059 28.015 472.834 26.125H466.489C466.759 30.76 471.124 34.405 477.379 34.405C483.454 34.405 487.189 31.165 487.189 26.89Z" fill="#1C1C1C"/>
</svg>
