<svg width="27" height="27" viewBox="0 0 27 27" fill="none" xmlns="http://www.w3.org/2000/svg">
<path d="M13.9955 24.5915C19.9786 24.5915 24.8289 19.7412 24.8289 13.7581C24.8289 7.77505 19.9786 2.9248 13.9955 2.9248C8.01245 2.9248 3.1622 7.77505 3.1622 13.7581C3.1622 19.7412 8.01245 24.5915 13.9955 24.5915Z" stroke="black" stroke-width="2" stroke-linecap="square"/>
<path d="M13.1252 18C12.943 18 12.7677 17.93 12.6392 17.8047L9.20161 14.4712C8.9328 14.2105 8.9328 13.7892 9.20161 13.5285C9.47043 13.2678 9.90494 13.2678 10.1738 13.5285L13.0991 16.3653L18.802 10.2204C19.0564 9.9477 19.4909 9.92437 19.7728 10.171C20.0547 10.4171 20.0773 10.8384 19.8237 11.1124L13.6361 17.7793C13.5102 17.9153 13.3315 17.9947 13.1431 18H13.1252Z" fill="black"/>
</svg>
