<svg width="79" height="79" viewBox="0 0 79 79" fill="none" xmlns="http://www.w3.org/2000/svg">
<path d="M48.4781 16.0763C48.3589 16.0555 48.2355 16.0431 48.1163 16.0431C47.218 16.0431 46.4432 16.6658 46.2687 17.5293C46.2176 17.7743 46.2219 18.0234 46.2772 18.2641L41.4752 19.8334C41.4326 19.7462 41.3858 19.6632 41.3304 19.5843C41.0495 19.1775 40.6237 18.9035 40.1299 18.8121C40.0107 18.7872 39.8873 18.7789 39.7638 18.7789C39.2317 18.7789 38.7463 18.9948 38.4015 19.3518L33.5058 15.7649C33.6122 15.5906 33.6846 15.3996 33.7272 15.2003C33.7272 15.192 33.7314 15.1879 33.7314 15.1796C33.9273 14.1873 33.2589 13.2242 32.2414 13.0332C32.1222 13.0083 31.9988 13 31.8796 13C30.9813 13 30.2065 13.6227 30.0363 14.4821C29.9383 14.9637 30.0405 15.4536 30.3215 15.8604C30.6025 16.2673 31.0282 16.5413 31.522 16.6367C31.6412 16.6575 31.7604 16.67 31.8838 16.67C32.399 16.67 32.897 16.4582 33.2504 16.097L38.1461 19.684C38.0397 19.8583 37.963 20.0535 37.9205 20.261C37.8225 20.7426 37.9247 21.2325 38.2057 21.6393C38.4483 21.9881 38.7932 22.2413 39.2019 22.3617L38.6059 25.3342C38.5548 25.33 38.5037 25.3259 38.4569 25.3259C37.5586 25.3259 36.7838 25.9486 36.6093 26.808C36.5114 27.2896 36.6135 27.7795 36.8945 28.1863C37.1755 28.5932 37.6012 28.8672 38.095 28.9626C38.2142 28.9834 38.3377 28.9958 38.4569 28.9958C39.3551 28.9958 40.1299 28.3731 40.3045 27.5096C40.4024 27.028 40.3002 26.5423 40.0192 26.1354C39.7766 25.7867 39.4317 25.5335 39.0231 25.4131L39.6191 22.4406C39.6701 22.4447 39.7212 22.4489 39.7723 22.4489C40.6706 22.4489 41.4454 21.8262 41.6199 20.9668C41.671 20.7177 41.6667 20.4686 41.6114 20.232L46.4134 18.6627C46.6646 19.1899 47.1669 19.576 47.7587 19.6881C47.8779 19.7089 48.0013 19.7213 48.1205 19.7213C49.0188 19.7213 49.7936 19.0986 49.9681 18.2351C50.164 17.2387 49.4999 16.2714 48.4781 16.0763ZM32.995 15.2999C32.995 15.3041 32.995 15.3083 32.9907 15.3083C32.9652 15.4037 32.88 15.466 32.7821 15.466C32.7651 15.466 32.748 15.466 32.731 15.4619C32.6161 15.4328 32.548 15.3249 32.5735 15.2169C32.6757 14.6814 32.3138 14.1583 31.7646 14.0545C31.6497 14.0337 31.5731 13.9216 31.5986 13.8095C31.6242 13.6975 31.7348 13.6227 31.8498 13.6476C32.6288 13.7971 33.144 14.5402 32.995 15.2999ZM40.7217 19.9995C40.9473 20.3233 41.0282 20.7135 40.9515 21.0996C40.9303 21.1993 40.8409 21.2657 40.7429 21.2657C40.7302 21.2657 40.7174 21.2657 40.7004 21.2615C40.5854 21.2408 40.5088 21.1328 40.5301 21.0166C40.5854 20.7426 40.5258 20.4603 40.3641 20.232C40.2023 19.9995 39.9596 19.8459 39.6787 19.7919C39.5637 19.7711 39.4871 19.6632 39.5084 19.547C39.5297 19.4307 39.6403 19.3601 39.7595 19.3809C40.1597 19.4556 40.5003 19.6757 40.7217 19.9995ZM39.602 27.6258C39.5807 27.7255 39.4913 27.7919 39.3934 27.7919C39.3807 27.7919 39.3679 27.7919 39.3509 27.7878C39.2359 27.767 39.1593 27.6549 39.1848 27.5428C39.2913 27.0073 38.9294 26.48 38.376 26.3762C38.261 26.3555 38.1844 26.2434 38.2099 26.1313C38.2312 26.0192 38.3462 25.9445 38.4611 25.9694C39.2444 26.123 39.7553 26.8661 39.602 27.6258ZM49.0529 17.2802C49.27 17.5957 49.3509 17.9777 49.2742 18.3513C49.2529 18.451 49.1635 18.5174 49.0656 18.5174C49.0529 18.5174 49.0401 18.5174 49.0231 18.5132C48.9081 18.4925 48.8315 18.3804 48.857 18.2683C48.9124 18.0026 48.8528 17.7327 48.6995 17.5086C48.5463 17.2844 48.3079 17.1308 48.0354 17.081C47.9205 17.0602 47.8438 16.9481 47.8694 16.836C47.8907 16.7239 48.0056 16.6492 48.1205 16.6741C48.4994 16.7488 48.8315 16.9647 49.0529 17.2802Z" fill="black"/>
<circle cx="39.5" cy="39.5" r="38.5" stroke="black" stroke-width="2"/>
<path d="M17.0495 42.809V40.576H18.2705C19.1395 40.576 19.5245 40.994 19.5245 41.698C19.5245 42.38 19.1395 42.809 18.2705 42.809H17.0495ZM21.1085 41.698C21.1085 40.367 20.1845 39.322 18.3365 39.322H15.5095V47H17.0495V44.052H18.3365C20.3165 44.052 21.1085 42.864 21.1085 41.698ZM27.4159 47H29.0439L26.2829 39.311H24.4899L21.7289 47H23.3459L23.8519 45.537H26.9099L27.4159 47ZM26.4919 44.305H24.2699L25.3809 41.093L26.4919 44.305ZM34.1459 41.709C34.1459 42.402 33.7609 42.853 32.9029 42.853H31.6159V40.598H32.9029C33.7609 40.598 34.1459 41.027 34.1459 41.709ZM30.0759 39.322V47H31.6159V44.008H32.3419L34.0359 47H35.8179L33.9809 43.887C35.2129 43.557 35.7299 42.611 35.7299 41.676C35.7299 40.389 34.8059 39.322 32.9579 39.322H30.0759ZM42.3368 47H43.9648L41.2038 39.311H39.4108L36.6498 47H38.2668L38.7728 45.537H41.8308L42.3368 47ZM41.4128 44.305H39.1908L40.3018 41.093L41.4128 44.305ZM49.2758 44.734C49.2758 45.383 48.8358 45.746 48.0878 45.746H46.5368V43.678H48.0548C48.8028 43.678 49.2758 44.074 49.2758 44.734ZM49.0888 41.533C49.0888 42.16 48.6708 42.49 47.9448 42.49H46.5368V40.565H47.9448C48.6708 40.565 49.0888 40.917 49.0888 41.533ZM50.8378 44.921C50.8378 44.019 50.2218 43.216 49.3528 43.062C50.1008 42.82 50.6618 42.237 50.6618 41.302C50.6618 40.158 49.7708 39.322 48.1648 39.322H44.9968V47H48.3078C49.9028 47 50.8378 46.142 50.8378 44.921ZM56.5202 39.311H52.0652V47H56.5202V45.746H53.6052V43.711H56.1902V42.49H53.6052V40.565H56.5202V39.311ZM62.9466 39.311V44.591L59.4596 39.311H57.9196V47H59.4596V41.731L62.9466 47H64.4866V39.311H62.9466ZM28.4646 64H30.0046V60.755H32.4576V59.534H30.0046V57.565H33.2056V56.322H28.4646V64ZM38.3676 58.709C38.3676 59.402 37.9826 59.853 37.1246 59.853H35.8376V57.598H37.1246C37.9826 57.598 38.3676 58.027 38.3676 58.709ZM34.2976 56.322V64H35.8376V61.008H36.5636L38.2576 64H40.0396L38.2026 60.887C39.4346 60.557 39.9516 59.611 39.9516 58.676C39.9516 57.389 39.0276 56.322 37.1796 56.322H34.2976ZM45.7994 56.311H41.3444V64H45.7994V62.746H42.8844V60.711H45.4694V59.49H42.8844V57.565H45.7994V56.311ZM51.6539 56.311H47.1989V64H51.6539V62.746H48.7389V60.711H51.3239V59.49H48.7389V57.565H51.6539V56.311Z" fill="black"/>
</svg>
