<svg width="19" height="25" viewBox="0 0 19 25" fill="none" xmlns="http://www.w3.org/2000/svg">
<path d="M1.64673 11.49C1.68895 11.5327 2.47006 12.5354 3.82117 13.538C3.84229 13.5594 3.88451 13.5807 3.90562 13.602L6.16451 11.9167C6.10117 11.6394 6.05895 11.3407 6.05895 11.042C6.05895 9.10071 7.60006 7.54338 9.52117 7.54338C10.1756 7.54338 10.809 7.73538 11.3367 8.05538L12.6245 7.09538C11.5901 6.69005 10.5556 6.49805 9.52117 6.49805C7.60006 6.49805 5.63673 7.20205 3.82117 8.54605C2.47006 9.52738 1.66784 10.53 1.64673 10.5727L1.45673 10.8074C1.35117 10.9354 1.35117 11.1274 1.45673 11.2554L1.64673 11.49Z" fill="#323232"/>
<path d="M17.3533 10.5728C17.3111 10.5302 16.53 9.52749 15.1789 8.52483C14.63 8.11949 14.06 7.75683 13.4689 7.47949L11.97 8.61016C12.5822 9.25016 12.9411 10.1035 12.9411 11.0422C12.9411 12.9835 11.4 14.5408 9.47885 14.5408C8.16996 14.5408 7.05108 13.8155 6.45996 12.7488L4.64441 14.0928C6.20663 15.0528 7.87441 15.5648 9.49996 15.5648C11.4211 15.5648 13.3844 14.8608 15.2 13.5168C16.5511 12.5142 17.3322 11.5115 17.3744 11.4688L17.5644 11.2342C17.67 11.1062 17.67 10.9142 17.5644 10.7862L17.3533 10.5728Z" fill="#323232"/>
<path d="M10.3235 8.78117C10.0702 8.6745 9.79574 8.63184 9.50019 8.63184C8.1913 8.63184 7.13574 9.6985 7.13574 11.0212C7.13574 11.0638 7.13574 11.1278 7.13574 11.1705L10.3235 8.78117Z" fill="#323232"/>
<path d="M11.1045 9.27148L7.3678 12.0662C7.7478 12.8768 8.57113 13.4315 9.50002 13.4315C10.8089 13.4315 11.8645 12.3648 11.8645 11.0422C11.8645 10.3382 11.5689 9.69815 11.1045 9.27148ZM11.3156 11.0208C11.3156 12.0235 10.5134 12.8555 9.50002 12.8555C9.28891 12.8555 9.14113 12.6848 9.14113 12.4928C9.14113 12.3862 9.18335 12.3008 9.24669 12.2368C9.31002 12.1728 9.39446 12.1302 9.50002 12.1302C10.0911 12.1302 10.5767 11.6395 10.5767 11.0422C10.5767 10.8288 10.7456 10.6795 10.9356 10.6795C11.1256 10.6795 11.3156 10.8288 11.3156 11.0208Z" fill="#323232"/>
<path d="M18.017 3.81039L17.7654 3.46777L0.982684 16.0553L1.23433 16.3979L18.017 3.81039Z" fill="#323232"/>
</svg>
