<svg width="117" height="250" viewBox="0 0 117 250" fill="none" xmlns="http://www.w3.org/2000/svg">
<path fill-rule="evenodd" clip-rule="evenodd" d="M0 16.2048C0 7.25513 7.04684 0 15.7395 0H100.733C109.426 0 116.472 7.25513 116.472 16.2048V233.349C116.472 242.299 109.426 249.554 100.733 249.554H15.7395C7.04684 249.554 0 242.299 0 233.349V16.2048ZM4.19731 17.2851C4.19731 10.722 9.36489 5.40159 15.7395 5.40159H28.3312C28.3312 10.7714 32.5591 15.1245 37.7748 15.1245H78.6976C83.9133 15.1245 88.1413 10.7714 88.1413 5.40159H100.733C107.108 5.40159 112.275 10.722 112.275 17.2851V232.269C112.275 238.832 107.108 244.152 100.733 244.152H15.7395C9.36489 244.152 4.19731 238.832 4.19731 232.269V17.2851Z" fill="#292727"/>
</svg>
