<svg width="83" height="79" viewBox="0 0 83 79" fill="none" xmlns="http://www.w3.org/2000/svg">
<circle cx="41.5" cy="39.5" r="38.5" stroke="black" stroke-width="2"/>
<path d="M12.8937 42.809V40.576H14.1147C14.9837 40.576 15.3687 40.994 15.3687 41.698C15.3687 42.38 14.9837 42.809 14.1147 42.809H12.8937ZM16.9527 41.698C16.9527 40.367 16.0287 39.322 14.1807 39.322H11.3537V47H12.8937V44.052H14.1807C16.1607 44.052 16.9527 42.864 16.9527 41.698ZM22.8751 47H24.4151V39.322H22.8751V42.479H19.5861V39.322H18.0461V47H19.5861V43.733H22.8751V47ZM25.5239 40.565H27.5699V47H29.1099V40.565H31.1559V39.322H25.5239V40.565ZM37.1085 47H38.6485V39.322H37.1085V42.479H33.8195V39.322H32.2795V47H33.8195V43.733H37.1085V47ZM45.3783 47H47.0063L44.2453 39.311H42.4523L39.6913 47H41.3083L41.8143 45.537H44.8723L45.3783 47ZM44.4543 44.305H42.2323L43.3433 41.093L44.4543 44.305ZM48.0383 39.322V47H52.1083V45.779H49.5783V39.322H48.0383ZM58.3011 47H59.9291L57.1681 39.311H55.3751L52.6141 47H54.2311L54.7371 45.537H57.7951L58.3011 47ZM57.3771 44.305H55.1551L56.2661 41.093L57.3771 44.305ZM60.5541 40.565H62.6001V47H64.1401V40.565H66.1861V39.322H60.5541V40.565ZM71.7648 39.311H67.3098V47H71.7648V45.746H68.8498V43.711H71.4348V42.49H68.8498V40.565H71.7648V39.311ZM29.9646 64H31.5046V60.755H33.9576V59.534H31.5046V57.565H34.7056V56.322H29.9646V64ZM39.8676 58.709C39.8676 59.402 39.4826 59.853 38.6246 59.853H37.3376V57.598H38.6246C39.4826 57.598 39.8676 58.027 39.8676 58.709ZM35.7976 56.322V64H37.3376V61.008H38.0636L39.7576 64H41.5396L39.7026 60.887C40.9346 60.557 41.4516 59.611 41.4516 58.676C41.4516 57.389 40.5276 56.322 38.6796 56.322H35.7976ZM47.2994 56.311H42.8444V64H47.2994V62.746H44.3844V60.711H46.9694V59.49H44.3844V57.565H47.2994V56.311ZM53.1539 56.311H48.6989V64H53.1539V62.746H50.2389V60.711H52.8239V59.49H50.2389V57.565H53.1539V56.311Z" fill="black"/>
<path d="M49.2912 24.514L45.265 26.794L41.4722 24.647V20.353L45.265 18.206L49.2912 20.486C49.5246 20.619 49.7969 20.543 49.933 20.315C50.0692 20.087 49.9914 19.821 49.758 19.688L45.7318 17.408V13.456C45.7318 13.209 45.5178 13 45.265 13C45.0121 13 44.7982 13.209 44.7982 13.456V17.427L41.0054 19.555L36.9792 17.275C36.8431 17.199 36.6486 17.199 36.5124 17.275L32.2334 19.688C32.0973 19.783 32 19.935 32 20.087V24.894C32 25.065 32.0973 25.217 32.2334 25.293L36.493 27.706C36.5708 27.744 36.6486 27.763 36.7264 27.763C36.8042 27.763 36.882 27.744 36.9598 27.706L40.986 25.426L44.7787 27.573V31.544C44.7787 31.791 44.9927 32 45.2455 32C45.4984 32 45.7123 31.791 45.7123 31.544V27.573L49.7385 25.293C49.9719 25.16 50.0497 24.894 49.9136 24.666C49.8163 24.457 49.5246 24.381 49.2912 24.514ZM36.7264 26.775L32.9336 24.647V20.353L36.7264 18.206L40.5192 20.353V24.628L36.7264 26.775Z" fill="black"/>
<line x1="36.1352" y1="24.5298" x2="37.7388" y2="23.8648" stroke="black" stroke-width="0.5" stroke-linecap="round" stroke-linejoin="round"/>
<line x1="36.3354" y1="20.8882" x2="37.8882" y2="21.6646" stroke="black" stroke-width="0.5" stroke-linecap="round" stroke-linejoin="round"/>
<line x1="34.7503" y1="22.9861" x2="34.7521" y2="21.25" stroke="black" stroke-width="0.5" stroke-linecap="round" stroke-linejoin="round"/>
</svg>
