<?xml version="1.0" standalone="no"?>
<!DOCTYPE svg PUBLIC "-//W3C//DTD SVG 20010904//EN"
 "http://www.w3.org/TR/2001/REC-SVG-20010904/DTD/svg10.dtd">
<svg version="1.0" xmlns="http://www.w3.org/2000/svg"
 width="428.000000pt" height="428.000000pt" viewBox="0 0 428.000000 428.000000"
 preserveAspectRatio="xMidYMid meet">

<g transform="translate(0.000000,428.000000) scale(0.100000,-0.100000)"
fill="#000000" stroke="none">
<path d="M1948 3259 c-13 -7 -18 -23 -18 -54 l0 -45 260 0 260 0 0 45 c0 34
-5 47 -19 55 -26 13 -460 13 -483 -1z"/>
<path d="M1627 3214 c-4 -4 -7 -18 -7 -31 0 -23 1 -23 116 -23 l115 0 -3 28
-3 27 -106 3 c-58 1 -108 -1 -112 -4z"/>
<path d="M1568 3113 c-16 -2 -44 -19 -63 -37 l-35 -33 -1 -194 c-2 -386 -1
-420 16 -445 29 -45 70 -58 207 -62 l128 -4 -45 66 c-60 89 -79 158 -72 257 7
100 46 184 120 258 102 100 200 141 343 141 227 0 412 -148 456 -364 20 -104
-18 -235 -94 -322 l-32 -37 109 5 c121 5 162 19 192 65 16 24 18 57 18 323 0
324 0 327 -62 367 -25 17 -70 18 -593 19 -311 1 -577 -1 -592 -3z m1156 -69
c30 -11 40 -43 20 -65 -14 -16 -31 -19 -109 -19 -78 0 -95 3 -109 19 -14 15
-15 24 -7 39 6 11 16 23 23 25 19 8 163 8 182 1z"/>
<path d="M2058 2999 c-118 -27 -238 -130 -278 -236 -28 -75 -29 -180 -1 -253
40 -104 99 -167 208 -218 53 -25 68 -27 173 -27 144 1 203 21 289 101 85 78
116 151 116 269 0 77 -4 98 -27 147 -50 108 -140 181 -263 213 -64 16 -158 18
-217 4z m215 -109 c203 -76 252 -317 93 -457 -177 -155 -467 -57 -501 169 -19
123 78 257 215 299 48 14 138 9 193 -11z"/>
<path d="M1590 1875 c0 -83 4 -135 10 -135 6 0 10 52 10 135 0 83 -4 135 -10
135 -6 0 -10 -52 -10 -135z"/>
<path d="M1700 1875 c0 -83 4 -135 10 -135 6 0 10 47 10 122 0 67 4 118 8 113
5 -6 28 -57 52 -115 24 -58 46 -108 50 -113 3 -4 29 48 58 115 l51 123 1 -122
c0 -103 2 -123 15 -123 13 0 15 22 15 136 0 135 0 135 -22 132 -19 -2 -31 -23
-68 -110 -24 -59 -47 -104 -51 -100 -3 4 -25 53 -49 110 -33 77 -48 102 -62
102 -17 0 -18 -11 -18 -135z"/>
<path d="M2068 1875 c-36 -87 -51 -135 -43 -135 7 0 20 18 29 40 l16 40 63 0
64 0 16 -40 c15 -38 44 -59 33 -22 -19 59 -103 246 -112 249 -5 2 -35 -57 -66
-132z m107 -2 c6 -22 4 -23 -43 -23 l-50 0 20 52 c11 29 22 57 26 63 6 9 31
-42 47 -92z"/>
<path d="M2385 1999 c-17 -4 -44 -22 -60 -39 -26 -27 -30 -39 -30 -90 0 -48 4
-63 24 -84 30 -32 91 -50 142 -41 l39 7 0 64 0 64 -40 0 c-29 0 -40 -4 -40
-15 0 -10 10 -15 30 -15 28 0 30 -2 30 -40 l0 -40 -45 0 c-51 0 -99 20 -109
45 -15 39 -6 104 17 131 20 23 34 28 85 32 64 5 79 15 40 26 -29 7 -45 6 -83
-5z"/>
<path d="M2580 1875 l0 -135 80 0 c64 0 80 3 80 15 0 12 -14 15 -70 15 l-70 0
0 45 0 45 60 0 c47 0 60 3 60 15 0 12 -13 15 -60 15 l-60 0 0 45 0 45 70 0
c56 0 70 3 70 15 0 12 -16 15 -80 15 l-80 0 0 -135z"/>
<path d="M1432 1490 c-32 -14 -47 -29 -58 -57 -21 -50 -13 -117 17 -149 27
-29 89 -48 130 -39 44 10 35 25 -16 25 -51 0 -99 20 -109 45 -3 9 -6 37 -6 62
0 36 6 50 29 74 25 24 37 29 80 29 53 0 68 13 29 24 -35 9 -50 7 -96 -14z"/>
<path d="M1673 1496 c-98 -44 -95 -201 4 -242 103 -44 199 58 161 170 -23 69
-99 102 -165 72z m121 -47 c19 -23 26 -42 26 -74 0 -65 -37 -105 -96 -105 -66
0 -94 31 -94 105 0 74 28 105 94 105 37 0 48 -5 70 -31z"/>
<path d="M1920 1375 c0 -83 4 -135 10 -135 6 0 10 47 10 122 0 67 4 118 8 113
5 -6 28 -57 52 -115 24 -58 46 -108 50 -113 3 -4 29 48 58 115 l51 123 1 -122
c0 -103 2 -123 15 -123 13 0 15 22 15 136 0 135 0 135 -22 132 -19 -2 -31 -23
-68 -110 -24 -59 -47 -104 -51 -100 -3 4 -25 53 -49 110 -33 77 -48 102 -62
102 -17 0 -18 -11 -18 -135z"/>
<path d="M2260 1375 c0 -83 4 -135 10 -135 6 0 10 52 10 135 0 83 -4 135 -10
135 -6 0 -10 -52 -10 -135z"/>
<path d="M2360 1375 c0 -168 18 -183 22 -18 l3 117 83 -117 c45 -64 87 -117
92 -117 6 0 10 54 10 135 0 167 -18 183 -22 20 l-3 -116 -80 115 c-44 64 -86
116 -92 116 -10 0 -13 -34 -13 -135z"/>
<path d="M2735 1499 c-17 -4 -44 -22 -60 -39 -26 -27 -30 -39 -30 -90 0 -48 4
-63 24 -84 30 -32 91 -50 142 -41 l39 7 0 64 0 64 -40 0 c-29 0 -40 -4 -40
-15 0 -10 10 -15 30 -15 28 0 30 -2 30 -40 l0 -40 -45 0 c-51 0 -99 20 -109
45 -15 39 -6 104 17 131 20 23 34 28 85 32 64 5 79 15 40 26 -29 7 -45 6 -83
-5z"/>
<path d="M1624 996 c-17 -8 -34 -21 -38 -31 -18 -49 4 -77 79 -99 65 -20 82
-48 49 -80 -10 -11 -34 -16 -75 -16 -67 0 -79 -15 -19 -25 47 -8 106 9 120 35
14 27 12 66 -4 79 -8 6 -38 19 -67 29 -47 15 -54 21 -57 46 -5 37 10 46 76 46
57 0 70 14 21 24 -42 8 -49 7 -85 -8z"/>
<path d="M1883 996 c-98 -44 -95 -201 4 -242 103 -44 199 58 161 170 -23 69
-99 102 -165 72z m121 -47 c19 -23 26 -42 26 -74 0 -65 -37 -105 -96 -105 -66
0 -94 31 -94 105 0 74 28 105 94 105 37 0 48 -5 70 -31z"/>
<path d="M2183 996 c-98 -44 -95 -201 4 -242 103 -44 199 58 161 170 -23 69
-99 102 -165 72z m121 -47 c19 -23 26 -42 26 -74 0 -65 -37 -105 -96 -105 -66
0 -94 31 -94 105 0 74 28 105 94 105 37 0 48 -5 70 -31z"/>
<path d="M2420 875 c0 -168 18 -183 22 -18 l3 117 83 -117 c45 -64 87 -117 92
-117 6 0 10 54 10 135 0 167 -18 183 -22 20 l-3 -116 -80 115 c-44 64 -86 116
-92 116 -10 0 -13 -34 -13 -135z"/>
</g>
</svg>
