<svg width="20" height="26" viewBox="0 0 20 26" fill="none" xmlns="http://www.w3.org/2000/svg">
<path d="M6.79998 16.0162H13.2C13.7835 16.0162 14.343 15.7751 14.7556 15.346C15.1682 14.917 15.4 14.335 15.4 13.7282V11.4402H14.2V13.7282C14.2 14.004 14.0946 14.2685 13.9071 14.4636C13.7195 14.6586 13.4652 14.7682 13.2 14.7682H6.79998C6.53476 14.7682 6.28041 14.6586 6.09287 14.4636C5.90533 14.2685 5.79998 14.004 5.79998 13.7282V7.07218C5.79998 6.79635 5.90533 6.53183 6.09287 6.33679C6.28041 6.14175 6.53476 6.03218 6.79998 6.03218H8.99998V4.78418H6.79998C6.2165 4.78418 5.65692 5.02524 5.24434 5.45432C4.83176 5.8834 4.59998 6.46536 4.59998 7.07218V13.7282C4.59998 14.335 4.83176 14.917 5.24434 15.346C5.65692 15.7751 6.2165 16.0162 6.79998 16.0162Z" fill="black"/>
<path d="M8.75195 10.8162L9.59995 11.6981L14.2 6.9141V9.36018H15.4V5.40818C15.4 5.24268 15.3367 5.08397 15.2242 4.96694C15.1117 4.84992 14.9591 4.78418 14.8 4.78418H11V6.03218H13.352L8.75195 10.8162Z" fill="black"/>
</svg>
