<svg width="79" height="79" viewBox="0 0 79 79" fill="none" xmlns="http://www.w3.org/2000/svg">
<path d="M31.762 33.8796C32.2701 34.3877 32.9305 34.6417 33.5909 34.6417C34.2513 34.6417 34.9118 34.3877 35.4198 33.8796L47.0789 22.2206L47.4345 22.5762C47.4853 22.627 47.5615 22.6524 47.6123 22.6524C47.6631 22.6524 47.7393 22.627 47.7901 22.5762C47.8917 22.4746 47.8917 22.3222 47.7901 22.2206L43.4211 17.877C43.3195 17.7754 43.1671 17.7754 43.0655 17.877C42.9639 17.9786 42.9639 18.131 43.0655 18.2326L43.4211 18.5882L31.762 30.2473C31.2794 30.7299 31 31.3903 31 32.0762C31.0254 32.762 31.2794 33.397 31.762 33.8796ZM32.143 30.6029L43.7767 18.9438L46.6978 21.8649L45.1992 23.3636L44.2085 22.373C44.1069 22.2714 43.9545 22.2714 43.8529 22.373C43.7513 22.4746 43.7513 22.627 43.8529 22.7286L44.8436 23.7192L44.1069 24.4559L43.1163 23.4652C43.0147 23.3636 42.8623 23.3636 42.7607 23.4652C42.6591 23.5668 42.6591 23.7192 42.7607 23.8208L43.7513 24.8115L43.0147 25.5481L42.024 24.5575C41.9224 24.4559 41.77 24.4559 41.6684 24.5575C41.5668 24.6591 41.5668 24.8115 41.6684 24.9131L42.6591 25.9037L41.9224 26.6403L40.9318 25.6497C40.8302 25.5481 40.6778 25.5481 40.5762 25.6497C40.4746 25.7513 40.4746 25.9037 40.5762 26.0053L41.5668 26.996L40.8302 27.7326L39.8396 26.7419C39.738 26.6403 39.5855 26.6403 39.4839 26.7419C39.3823 26.8435 39.3823 26.996 39.4839 27.0976L40.4746 28.0882L39.738 28.8248L38.7473 27.8342C38.6457 27.7326 38.4933 27.7326 38.3917 27.8342C38.2901 27.9358 38.2901 28.0882 38.3917 28.1898L39.3823 29.1804L38.6457 29.9171L37.6805 28.9518C37.5789 28.8502 37.4265 28.8502 37.3249 28.9518C37.2233 29.0534 37.2233 29.2058 37.3249 29.3074L38.3155 30.2981L37.5789 31.0347L36.5882 30.0441C36.4866 29.9425 36.3342 29.9425 36.2326 30.0441C36.131 30.1457 36.131 30.2981 36.2326 30.3997L37.2233 31.3903L35.0642 33.5494C34.2513 34.3623 32.9559 34.3623 32.143 33.5748C31.762 33.1938 31.5334 32.6604 31.5334 32.1016C31.5334 31.5427 31.7366 31.0093 32.143 30.6029Z" fill="black" stroke="black" stroke-width="0.3"/>
<circle cx="45.7665" cy="17.1746" r="1.05838" fill="black"/>
<circle cx="41.533" cy="16.117" r="1.05838" fill="black"/>
<circle cx="48.9416" cy="23.5252" r="1.05838" fill="black"/>
<circle cx="47.354" cy="14.5292" r="0.529188" fill="black"/>
<circle r="0.529188" transform="matrix(-1 0 0 1 46.2957 25.1122)" fill="black"/>
<circle cx="39.9454" cy="18.7626" r="0.529188" fill="black"/>
<circle cx="48.4124" cy="19.821" r="1.58756" fill="black"/>
<circle cx="39.5" cy="39.5" r="38.5" stroke="black" stroke-width="2"/>
<path d="M23.461 44.778C23.461 42.072 19.523 42.93 19.523 41.39C19.523 40.763 19.974 40.466 20.579 40.488C21.239 40.499 21.646 40.895 21.679 41.401H23.373C23.274 40.015 22.196 39.212 20.623 39.212C19.039 39.212 17.917 40.048 17.917 41.434C17.906 44.217 21.866 43.216 21.866 44.877C21.866 45.427 21.437 45.812 20.711 45.812C19.996 45.812 19.589 45.405 19.545 44.789H17.895C17.917 46.241 19.149 47.077 20.744 47.077C22.493 47.077 23.461 45.988 23.461 44.778ZM24.7741 44.063C24.7741 46.087 26.1601 47.077 27.8431 47.077C29.5261 47.077 30.9781 46.087 30.9781 44.063V39.322H29.4271V44.074C29.4271 45.13 28.8551 45.68 27.8651 45.68C26.8861 45.68 26.3141 45.13 26.3141 44.074V39.322H24.7741V44.063ZM32.466 39.322V47H36.536V45.779H34.006V39.322H32.466ZM37.5149 47H39.0549V43.755H41.5079V42.534H39.0549V40.565H42.2559V39.322H37.5149V47ZM48.5619 47H50.1899L47.4289 39.311H45.6359L42.8749 47H44.4919L44.9979 45.537H48.0559L48.5619 47ZM47.6379 44.305H45.4159L46.5269 41.093L47.6379 44.305ZM50.8149 40.565H52.8609V47H54.4009V40.565H56.4469V39.322H50.8149V40.565ZM62.0255 39.311H57.5705V47H62.0255V45.746H59.1105V43.711H61.6955V42.49H59.1105V40.565H62.0255V39.311ZM28.4646 64H30.0046V60.755H32.4576V59.534H30.0046V57.565H33.2056V56.322H28.4646V64ZM38.3676 58.709C38.3676 59.402 37.9826 59.853 37.1246 59.853H35.8376V57.598H37.1246C37.9826 57.598 38.3676 58.027 38.3676 58.709ZM34.2976 56.322V64H35.8376V61.008H36.5636L38.2576 64H40.0396L38.2026 60.887C39.4346 60.557 39.9516 59.611 39.9516 58.676C39.9516 57.389 39.0276 56.322 37.1796 56.322H34.2976ZM45.7994 56.311H41.3444V64H45.7994V62.746H42.8844V60.711H45.4694V59.49H42.8844V57.565H45.7994V56.311ZM51.6539 56.311H47.1989V64H51.6539V62.746H48.7389V60.711H51.3239V59.49H48.7389V57.565H51.6539V56.311Z" fill="black"/>
</svg>
