<svg width="171" height="49" viewBox="0 0 171 49" fill="none" xmlns="http://www.w3.org/2000/svg">
<path d="M0.676328 15.1H11.8363V49H22.0963V15.1H33.2563V6.88H0.676328V15.1ZM38.4055 49H48.6655V30.82C48.6655 26.26 51.1855 23.74 55.0855 23.74C58.9855 23.74 61.5055 26.26 61.5055 30.82V49H71.7055V29.44C71.7055 20.44 66.6055 15.16 58.9855 15.16C54.3655 15.16 50.7055 17.14 48.6655 20.02V4.6H38.4055V49ZM78.8352 49H89.0952V15.52H78.8352V49ZM83.9952 12.04C87.5952 12.04 90.0552 9.58 90.0552 6.52C90.0552 3.4 87.5952 0.939996 83.9952 0.939996C80.3352 0.939996 77.8752 3.4 77.8752 6.52C77.8752 9.58 80.3352 12.04 83.9952 12.04ZM119.631 49H129.831V29.44C129.831 20.44 124.671 15.16 116.931 15.16C112.431 15.16 108.831 17.14 106.791 19.96V15.52H96.5305V49H106.791V30.82C106.791 26.26 109.311 23.74 113.211 23.74C117.111 23.74 119.631 26.26 119.631 30.82V49ZM136.96 49H147.22V34.96L157.42 49H170.14L156.1 32.32L170.02 15.52H157.36L147.22 29.14V4.6H136.96V49Z" fill="#1E1E1E"/>
</svg>
