<svg width="79" height="79" viewBox="0 0 79 79" fill="none" xmlns="http://www.w3.org/2000/svg">
<circle cx="39.5" cy="39.5" r="38.5" stroke="black" stroke-width="2"/>
<path d="M25.8755 53.427L23.7635 47.322H22.1135L24.9295 55H26.7995L29.6155 47.322H27.9765L25.8755 53.427ZM34.9938 47.311H30.5388V55H34.9938V53.746H32.0788V51.711H34.6638V50.49H32.0788V48.565H34.9938V47.311ZM39.9353 47.223C37.7133 47.223 36.0193 48.851 36.0193 51.15C36.0193 53.449 37.7133 55.066 39.9463 55.066C41.9923 55.066 43.3893 53.636 43.6973 52.074V50.732H39.5393V51.909H42.1793C41.9483 52.998 41.1893 53.68 40.0013 53.68C38.5713 53.68 37.6033 52.712 37.6033 51.15C37.6033 49.621 38.5603 48.642 39.9353 48.642C40.7493 48.642 41.3873 48.983 41.7393 49.632H43.5103C43.0153 48.092 41.6513 47.223 39.9353 47.223ZM50.0506 55H51.6786L48.9176 47.311H47.1246L44.3636 55H45.9806L46.4866 53.537H49.5446L50.0506 55ZM49.1266 52.305H46.9046L48.0156 49.093L49.1266 52.305ZM57.7377 47.311V52.591L54.2507 47.311H52.7107V55H54.2507V49.731L57.7377 55H59.2777V47.311H57.7377Z" fill="black"/>
<path d="M26 18C26 18 37.2388 23.4907 39.5345 39.0722C39.5345 39.0722 40.491 18 26 18Z" fill="black"/>
<path d="M40.1822 34.3446C42.5209 26.1719 48.8338 22.0273 48.8338 22.0273C43.4176 27.629 41.8036 33.0091 41.8036 33.0091C47.9731 28.8535 54.2144 18 54.2144 18C39.7947 18 40.1822 34.3446 40.1822 34.3446Z" fill="black"/>
</svg>
